<?xml version="1.0" encoding="utf-8"?>
<!-- Generator: Adobe Illustrator 21.0.0, SVG Export Plug-In . SVG Version: 6.00 Build 0)  -->
<svg version="1.1" id="Layer_1" xmlns="http://www.w3.org/2000/svg" xmlns:xlink="http://www.w3.org/1999/xlink" x="0px" y="0px"
	 viewBox="0 0 1080 1080" style="enable-background:new 0 0 1080 1080;" xml:space="preserve">
<style type="text/css">
	.st0{fill:#327594;}
	.st1{fill:none;stroke:#4A98B0;stroke-miterlimit:10;}
	.st2{fill:#2D688A;}
	.st3{fill:#F7A98D;}
	.st4{fill:#202B36;}
	.st5{fill:#D47866;}
	.st6{fill:#FEC2A0;}
	.st7{opacity:0.5882;}
	.st8{fill:#FA8884;}
	.st9{fill:#3D2B28;}
	.st10{fill:#FFFFFF;}
	.st11{fill:#FCF1D2;}
	.st12{fill:#EDD9B2;}
	.st13{fill:#2F404D;}
	.st14{fill:none;}
</style>
<path class="st0" d="M489,555.1c-35.9,13.2-40.2,49.8-50.2,97.4c11.6,5.4,30.7,11.1,42.7,9.9C485.6,622.6,487.3,596.3,489,555.1z"/>
<path class="st1" d="M468.1,651.6c-9.3-0.9-18.5-3.2-27.1-6.8"/>
<path class="st2" d="M628.5,697.7c-1.5-26.4-6.8-82.1-11.3-119.1c-2.5-20.2-12.4-35.5-37.9-39.9c-11.8-2-24.7-2.9-41.2-2
	c-18.6,4.2-33.2,10.1-50.6,19.1c-9.8,5.1-16.1,14.9-16.7,25.9c-1.8,37.6-2.9,81.9-5,116.5C498.6,707.2,599.4,705.7,628.5,697.7z"/>
<path class="st3" d="M567.9,512c1.3,8.3,2.7,16.7,4.4,26c-5.4,10.8-11.6,17.4-26.2,23.2c-1.2,0.5-7.9,17-7.9,17s-6.4-14.7-7.3-15
	c-11.6-4.8-15.5-9.5-18.2-18.8c0.7-8.9,1.1-15.7-0.1-24.6C531.1,518.3,549.5,516,567.9,512z"/>
<path class="st1" d="M580,539.5c-1.6,13.8-12,26.2-25.1,29.9c-5,9.3-10.1,18.7-15.6,28.1c-4.9-8.4-9.8-16.9-14.8-24.8
	c-10.6-3.4-19.1-12.8-21.5-23.7"/>
<path class="st0" d="M654.5,643.2c-5.9-31.6-23.8-88.8-60.3-99.9c-5.6,38.9-1.3,77.3,5.9,116C612.6,659.5,638.2,649.9,654.5,643.2z"
	/>
<path class="st1" d="M598,645c18.2-1.6,36.2-6.5,52.7-14.3"/>
<path class="st4" d="M618.2,476.9c-1.3,0.8-1.1,0.3-0.1-0.9C618.1,476.3,618.1,476.6,618.2,476.9z"/>
<g>
	<g>
		<path class="st3" d="M498.2,655.2c2.9-15.5,5.8-31,8.8-46.4c0.6-3.1,1.2-6.3,2.6-9.2c1.4-2.9,3.8-5.4,6.4-6.1
			c1.7-3.3,4.3-6.3,7.8-7.8c3.4-1.5,7.7-1.2,10.6,1.2c3.8,3.2,4.1,8.8,4,13.8c-0.3,13.6-1.3,27.2-2.4,40.7c-0.4,4.7-0.7,9.5-2.1,14
			c-1.4,4.5-3.9,8.8-7.8,11.5c-4.8,3.3-12.4,5.6-17.8,3.3C502.9,667.7,497.1,661.1,498.2,655.2z"/>
		<g>
			<path class="st5" d="M516,593.6c3.1-0.4,6.4,2.1,7,5.4c0.4,1.6,0.3,3.2,0.2,4.8c-0.1,1.6-0.2,3.1-0.4,4.7
				c-0.4,3.1-0.8,6.2-1.5,9.3l-1.9,9.2l-0.1-0.3c1.1,2,2,4.2,2.4,6.4c0.4,2.2,0.3,4.6-0.2,6.7c0.6-4.5-0.5-9-2.9-12.7l-0.1-0.1
				l0-0.2c0.5-3.1,1.1-6.1,1.7-9.2c0.5-3.1,1.1-6.1,1.5-9.2c0.2-1.5,0.4-3.1,0.5-4.6c0.1-1.5,0.2-3.1,0-4.6
				c-0.2-1.5-0.9-2.9-2.1-3.9C519.1,594.2,517.6,593.6,516,593.6z"/>
		</g>
	</g>
	<g>
		<path class="st6" d="M554.2,672c-10.6,1.1-20.3-6.7-23.4-14.9c-3.2-8.2-1.9-16.8-2.6-25.2c-0.6-6.8-2.4-13.5-2.9-20.3
			s0.3-13.8,5.4-20.3c-0.6-3.7,3.5-7.3,8.2-7.3c4.7,0,9.2,3.7,11.3,6.8c7.4,15.1,12.7,30.8,15.8,46.7c1.2,6,2,12,1.1,18
			C566.1,661.3,565.3,670.8,554.2,672z"/>
		<g>
			<g>
				<path class="st5" d="M530.9,592.5c1.9-0.8,4.1-0.4,5.9,0.7c1.8,1.1,3.1,2.8,3.9,4.7c0.9,1.9,1.3,3.9,1.8,5.8l1.3,5.9
					c0.8,3.9,1.6,7.8,2.4,11.8l1.1,5.9c0.3,2,0.7,3.9,1,5.9c-0.5-1.9-1-3.9-1.5-5.8l-1.4-5.8c-0.9-3.9-1.8-7.8-2.6-11.7l-1.2-5.9
					c-0.4-2-0.8-3.9-1.5-5.7c-0.7-1.8-1.8-3.5-3.4-4.6C534.9,592.5,532.9,591.9,530.9,592.5z"/>
			</g>
			<g>
				<path class="st5" d="M548.5,589.6c2,3.1,3.3,6.5,4.6,9.9c1.2,3.4,2.2,6.9,3.2,10.5c0.9,3.5,1.7,7.1,2.3,10.7
					c0.6,3.6,1.1,7.2,1.3,10.8c-0.2-0.9-0.4-1.8-0.5-2.7l-0.5-2.7c-0.4-1.8-0.7-3.6-1.1-5.3c-0.8-3.5-1.6-7.1-2.5-10.6
					c-0.9-3.5-1.9-7-2.9-10.5c-0.5-1.7-1.1-3.5-1.7-5.2C549.9,592.9,549.3,591.2,548.5,589.6z"/>
			</g>
		</g>
	</g>
</g>
<path class="st6" d="M617.3,650.5c-17.9-0.4-35.3-1.5-53.7-4.6c-4.4,8-10,15.4-17.2,25c17.5,5.5,35,11,52.5,16.5
	c9.1,2.9,19.2,5.7,27.9,1.8c7.1-3.2,11.8-10.5,13.7-18c2-7.5,1.7-15.2,1.4-23C633.7,650,624.7,650.7,617.3,650.5z"/>
<path class="st3" d="M504,649.4c-20.5,0.9-41,2.4-61.5,4.7c-4.7,12.3,1.7,27.3,13.9,32.5c9.8,4.2,21.1,2,30.9-2.1s18.3-7,28.7-13.8
	C512.3,663.7,508.7,656.7,504,649.4z"/>
<ellipse transform="matrix(0.8388 -0.5445 0.5445 0.8388 -187.2157 321.6185)" class="st3" cx="449.5" cy="476.9" rx="23.9" ry="26.1"/>
<g>
	<ellipse class="st6" cx="538.2" cy="432.5" rx="94.4" ry="94.9"/>
	<path class="st6" d="M449.3,480.4c0-28.3,37.2-51.2,83-51.2c45.8,0,83,23,82.9,51.3c0,28.3-33.1,48.4-83,51.2
		C486.4,534.3,449.3,509.5,449.3,480.4z"/>
</g>
<path class="st3" d="M609.3,447.7c-13.7-9.5-24.4-23.2-30.3-38.8c-9.6,9.4-22.4,15.5-35.8,17c2-4.3,4-8.5,6-12.8
	c-20.4,12.6-45.6,17.3-69.2,13.1c0.5-2.7,1-5.4,1.5-8.1c-5.5,4-10.1,9.3-13.4,15.3c-1-3.8-2.1-7.6-3.1-11.5
	c-6.9,8.1-12.2,17.5-15.5,27.6c-0.4-19.4,3.3-39,10.8-56.9c44.9-12.4,91-20.8,137.4-25.1C603.2,390.3,606.9,413.6,609.3,447.7z"/>
<g>
	<g class="st7">
		
			<ellipse transform="matrix(0.9908 -0.1351 0.1351 0.9908 -59.269 83.1725)" class="st8" cx="583.2" cy="478.3" rx="17" ry="12.2"/>
		<ellipse class="st8" cx="478.8" cy="487.4" rx="17" ry="12.2"/>
	</g>
	<g>
		<path class="st4" d="M465.9,434.8c1.1-3.4,3.7-6.4,6.9-8.3c3.2-2,6.9-3,10.6-3.2c3.7-0.1,7.5,0.7,10.8,2.4
			c3.3,1.7,6.1,4.4,7.7,7.5c-2.7-2.3-5.7-4-8.8-5.1c-3.1-1.1-6.4-1.5-9.6-1.4c-3.3,0.1-6.5,0.8-9.5,2.1
			C471,430.1,468.2,432.1,465.9,434.8z"/>
	</g>
	<g>
		<path class="st4" d="M585.9,425c-2.9-2.3-6.3-3.2-9.8-3.7c-3.4-0.5-6.9-0.5-10.4-0.2c-3.5,0.3-6.9,1-10.2,2.2
			c-3.3,1.1-6.5,2.7-9.4,4.9c2-3.2,5-5.6,8.4-7.3c3.4-1.7,7.1-2.7,10.9-3.1c3.8-0.4,7.6-0.1,11.3,1c1.8,0.5,3.6,1.3,5.2,2.3
			C583.6,422,585,423.3,585.9,425z"/>
	</g>
	<path class="st9" d="M546.2,465.5c2.6-6.3,9-11.1,16.2-12.3c7.2-1.2,14.8,1.4,19.3,6.5C572.2,454,558.2,455.4,546.2,465.5z"/>
	<path class="st9" d="M504.2,465.8c-5-5.5-11.5-10-18.8-10.8s-15.5,3.1-17.9,10.1c4.6-3.9,10.5-6.2,16.6-6.4
		C490.1,458.6,496.1,460.5,504.2,465.8z"/>
	<path class="st10" d="M551.6,479.2c-14.5,6.4-30.7,8.6-46,6.6c-3,6.7,0.4,15.4,6.2,19.5c5.8,4.2,13.2,4.7,20.1,4
		c6.8-0.8,13.9-3,18.7-8.3C555.4,495.7,557,486.5,551.6,479.2z"/>
</g>
<g>
	<path class="st11" d="M634.1,384.8c-0.9,9.1-2,18-3.2,26.3c-1.6-2-3.3-4-5-5.9c-19.1-20.8-45.9-33.4-73.3-38.8
		c-24.2-4.7-49-4.4-76.2-3.2c-6.3,0.3-12.8,0.6-19.5,0.9c6.7-21.4,11.1-35.5,21.4-55.3c25.3-20,58.3-31.5,89.3-24.2
		c19.3,4.5,35.4,12.4,48.2,24.9c7.7,7.6,14.2,16.8,19.4,28.1C636.4,352.2,635.7,368.8,634.1,384.8z"/>
	<path class="st12" d="M634.1,384.8c-2.6,7-5.4,13.8-8.2,20.4c-19.1-20.8-45.9-33.4-73.3-38.8c-24.2-4.7-49-4.4-76.2-3.2
		c6.9-19.6,14.3-39.1,22.2-58.3c24.9-13.9,55-18.1,82.5-11.2c12.4,3.1,24.2,8.5,34.8,15.8c7.7,7.6,14.2,16.8,19.4,28.1
		C636.4,352.2,635.7,368.8,634.1,384.8z"/>
</g>
<g>
	<path class="st4" d="M629.6,465.9c-3.2,1.8-9.3,7.5-11.5,10.1c-2.4-24.6-36.5-45.8-36.5-86.8c-6.5,16.8-12.3,21-28.2,28.2
		c5.6-9.2,9.9-19.2,12.9-29.6c-16.6,26.8-51.4,30.4-80.3,31.4c3.8-7.8,7.6-15.6,11.4-23.5c-13.6,7.9-18.5,14.5-26.7,26.4
		c-2.6-4.6-2.4-13.3-0.2-18.9c-12,14.7-19.9,38.5-19.9,66.2c-6-9.7-9.1-19.8-10.6-31.3c-1.1-8.3-1.4-17.3-1.4-27.4
		c0-10.5,1.7-19.6,4.8-27.5c3.7-14.6,13.5-27.8,26.9-34.9c-8.1,1-16.1,2-24.2,3c18.4-22.1,51.2-30.9,78.2-20.8
		c-4.1-6.9-3.9-13.2-1.6-18.7c1,3.9,4.4,6.7,8,8.4c3.6,1.7,7.6,2.3,11.5,3.3c12.4,3,24,9,33.7,17.3c2.2,1.9,4.3,3.9,6.3,6
		c8.8,2.8,16.1,6.3,21.2,9.9C655.7,371.3,637.5,434.1,629.6,465.9z"/>
	<path class="st13" d="M488.8,340.8c5.9,0.3,11.7,2.4,16.4,5.9c-6.5,1.3-12.5,4.6-17,9.4c13.5-3.9,28.8-1.4,40.4,6.7
		c-26.2-3-53.5,8-70.3,28.3c-10.9,13.2-17.2,30.1-18.1,47.2c-1.1-8.3-1.4-17.3-1.4-27.4c0-10.5,1.7-19.6,4.8-27.5
		c3.7-14.6,13.5-27.8,26.9-34.9c-8.1,1-16.1,2-24.2,3c18.4-22.1,51.2-30.9,78.2-20.8c-4.1-6.9-3.9-13.2-1.6-18.7
		c1,3.9,4.4,6.7,8,8.4c3.6,1.7,7.6,2.3,11.5,3.3c12.4,3,24,9,33.7,17.3c-13.5-6.6-28.2-10.9-43.1-12.6c3,3.9,5.9,7.9,8.9,11.8
		C524.5,335.9,506.1,336.1,488.8,340.8z"/>
</g>
<ellipse transform="matrix(0.546 -0.8378 0.8378 0.546 -108.4143 743.332)" class="st6" cx="631.6" cy="471.7" rx="26.1" ry="23.9"/>
<rect x="136.2" y="126.4" class="st14" width="565" height="565"/>
</svg>
